<mxfile host="app.diagrams.net" modified="2024-04-04T15:07:33.755Z" agent="Mozilla/5.0 (Windows NT 10.0; Win64; x64) AppleWebKit/537.36 (KHTML, like Gecko) Chrome/123.0.0.0 Safari/537.36" etag="kC5YgzsfVjSAh6bj4Pu6" version="24.0.8" type="device" pages="2">
  <diagram name="Page-1" id="CZoNgqeCKGxZEUXf0lMq">
    <mxGraphModel dx="4345" dy="2610" grid="1" gridSize="10" guides="1" tooltips="1" connect="1" arrows="1" fold="1" page="1" pageScale="1" pageWidth="1169" pageHeight="826" math="0" shadow="0">
      <root>
        <mxCell id="0" />
        <mxCell id="1" parent="0" />
        <mxCell id="7b926Ie0Sg-8X5z5vAXb-6" value="" style="edgeStyle=orthogonalEdgeStyle;rounded=0;orthogonalLoop=1;jettySize=auto;html=1;" edge="1" parent="1" source="7b926Ie0Sg-8X5z5vAXb-1" target="7b926Ie0Sg-8X5z5vAXb-5">
          <mxGeometry relative="1" as="geometry" />
        </mxCell>
        <mxCell id="7b926Ie0Sg-8X5z5vAXb-1" value="Ingest" style="shape=step;perimeter=stepPerimeter;whiteSpace=wrap;html=1;fixedSize=1;" vertex="1" parent="1">
          <mxGeometry x="200" y="160" width="120" height="80" as="geometry" />
        </mxCell>
        <mxCell id="7b926Ie0Sg-8X5z5vAXb-3" value="" style="edgeStyle=orthogonalEdgeStyle;rounded=0;orthogonalLoop=1;jettySize=auto;html=1;" edge="1" parent="1" source="7b926Ie0Sg-8X5z5vAXb-2" target="7b926Ie0Sg-8X5z5vAXb-1">
          <mxGeometry relative="1" as="geometry" />
        </mxCell>
        <mxCell id="7b926Ie0Sg-8X5z5vAXb-2" value="PDF documents" style="html=1;verticalLabelPosition=bottom;align=center;labelBackgroundColor=#ffffff;verticalAlign=top;strokeWidth=2;strokeColor=#0080F0;shadow=0;dashed=0;shape=mxgraph.ios7.icons.documents;" vertex="1" parent="1">
          <mxGeometry x="80" y="160" width="60" height="80" as="geometry" />
        </mxCell>
        <mxCell id="7b926Ie0Sg-8X5z5vAXb-162" value="" style="edgeStyle=orthogonalEdgeStyle;rounded=0;orthogonalLoop=1;jettySize=auto;html=1;" edge="1" parent="1" source="7b926Ie0Sg-8X5z5vAXb-5" target="7b926Ie0Sg-8X5z5vAXb-161">
          <mxGeometry relative="1" as="geometry" />
        </mxCell>
        <mxCell id="7b926Ie0Sg-8X5z5vAXb-5" value="Vector Store" style="shape=step;perimeter=stepPerimeter;whiteSpace=wrap;html=1;fixedSize=1;" vertex="1" parent="1">
          <mxGeometry x="360" y="160" width="120" height="80" as="geometry" />
        </mxCell>
        <mxCell id="7b926Ie0Sg-8X5z5vAXb-12" value="" style="edgeStyle=orthogonalEdgeStyle;rounded=0;orthogonalLoop=1;jettySize=auto;html=1;" edge="1" parent="1" source="7b926Ie0Sg-8X5z5vAXb-8" target="7b926Ie0Sg-8X5z5vAXb-11">
          <mxGeometry relative="1" as="geometry" />
        </mxCell>
        <mxCell id="7b926Ie0Sg-8X5z5vAXb-8" value="LLM" style="shape=step;perimeter=stepPerimeter;whiteSpace=wrap;html=1;fixedSize=1;" vertex="1" parent="1">
          <mxGeometry x="680" y="160" width="120" height="80" as="geometry" />
        </mxCell>
        <mxCell id="7b926Ie0Sg-8X5z5vAXb-15" style="edgeStyle=orthogonalEdgeStyle;rounded=0;orthogonalLoop=1;jettySize=auto;html=1;exitX=1;exitY=0.5;exitDx=0;exitDy=0;" edge="1" parent="1" source="7b926Ie0Sg-8X5z5vAXb-11" target="7b926Ie0Sg-8X5z5vAXb-14">
          <mxGeometry relative="1" as="geometry" />
        </mxCell>
        <mxCell id="7b926Ie0Sg-8X5z5vAXb-11" value="Query Prompt" style="shape=step;perimeter=stepPerimeter;whiteSpace=wrap;html=1;fixedSize=1;" vertex="1" parent="1">
          <mxGeometry x="840" y="160" width="120" height="80" as="geometry" />
        </mxCell>
        <mxCell id="7b926Ie0Sg-8X5z5vAXb-14" value="Show response&lt;div&gt;Store in database&lt;/div&gt;" style="sketch=0;shadow=0;dashed=0;html=1;strokeColor=none;fillColor=#505050;labelPosition=center;verticalLabelPosition=bottom;verticalAlign=top;outlineConnect=0;align=center;shape=mxgraph.office.databases.application_store;" vertex="1" parent="1">
          <mxGeometry x="1000" y="166.75" width="61.48" height="66.5" as="geometry" />
        </mxCell>
        <mxCell id="7b926Ie0Sg-8X5z5vAXb-16" value="" style="endArrow=none;dashed=1;html=1;dashPattern=1 3;strokeWidth=2;rounded=0;entryX=0.028;entryY=1.021;entryDx=0;entryDy=0;entryPerimeter=0;exitX=0;exitY=0;exitDx=0;exitDy=0;edgeStyle=orthogonalEdgeStyle;curved=1;" edge="1" parent="1" source="7b926Ie0Sg-8X5z5vAXb-18" target="7b926Ie0Sg-8X5z5vAXb-1">
          <mxGeometry width="50" height="50" relative="1" as="geometry">
            <mxPoint x="110" y="380" as="sourcePoint" />
            <mxPoint x="190" y="260" as="targetPoint" />
          </mxGeometry>
        </mxCell>
        <mxCell id="7b926Ie0Sg-8X5z5vAXb-17" value="" style="endArrow=none;dashed=1;html=1;dashPattern=1 3;strokeWidth=2;rounded=0;entryX=0.844;entryY=0.971;entryDx=0;entryDy=0;entryPerimeter=0;exitX=1;exitY=0;exitDx=0;exitDy=0;" edge="1" parent="1" source="7b926Ie0Sg-8X5z5vAXb-18" target="7b926Ie0Sg-8X5z5vAXb-1">
          <mxGeometry width="50" height="50" relative="1" as="geometry">
            <mxPoint x="320" y="440" as="sourcePoint" />
            <mxPoint x="260" y="300" as="targetPoint" />
          </mxGeometry>
        </mxCell>
        <mxCell id="7b926Ie0Sg-8X5z5vAXb-38" value="Document Vectorstore" style="rounded=0;whiteSpace=wrap;html=1;fillColor=none;dashed=1;dashPattern=8 8;container=1;labelPosition=center;verticalLabelPosition=top;align=center;verticalAlign=bottom;fontStyle=5;fontSize=20;" vertex="1" parent="1">
          <mxGeometry x="360" y="360" width="740" height="360" as="geometry">
            <mxRectangle x="360" y="360" width="50" height="40" as="alternateBounds" />
          </mxGeometry>
        </mxCell>
        <mxCell id="7b926Ie0Sg-8X5z5vAXb-158" value="Filter only New documents" style="rounded=0;whiteSpace=wrap;html=1;fillColor=#ffe6cc;strokeColor=#d79b00;" vertex="1" parent="7b926Ie0Sg-8X5z5vAXb-38">
          <mxGeometry x="10" y="191.42999999999995" width="100" height="45" as="geometry" />
        </mxCell>
        <mxCell id="7b926Ie0Sg-8X5z5vAXb-153" value="Copy" style="whiteSpace=wrap;html=1;shape=partialRectangle;top=0;left=0;bottom=1;right=0;points=[[0,1],[1,1]];fillColor=none;align=center;verticalAlign=bottom;routingCenterY=0.5;snapToPoint=1;recursiveResize=0;autosize=1;treeFolding=1;treeMoving=1;newEdgeStyle={&quot;edgeStyle&quot;:&quot;entityRelationEdgeStyle&quot;,&quot;startArrow&quot;:&quot;none&quot;,&quot;endArrow&quot;:&quot;none&quot;,&quot;segment&quot;:10,&quot;curved&quot;:1,&quot;sourcePerimeterSpacing&quot;:0,&quot;targetPerimeterSpacing&quot;:0};collapsible=0;" vertex="1" parent="7b926Ie0Sg-8X5z5vAXb-38">
          <mxGeometry x="140" y="179.28999999999996" width="40" height="30" as="geometry" />
        </mxCell>
        <mxCell id="7b926Ie0Sg-8X5z5vAXb-154" value="" style="edgeStyle=entityRelationEdgeStyle;startArrow=none;endArrow=none;segment=10;curved=1;sourcePerimeterSpacing=0;targetPerimeterSpacing=0;rounded=0;entryX=0;entryY=1;entryDx=0;entryDy=0;exitX=1;exitY=0.5;exitDx=0;exitDy=0;" edge="1" target="7b926Ie0Sg-8X5z5vAXb-153" parent="7b926Ie0Sg-8X5z5vAXb-38" source="7b926Ie0Sg-8X5z5vAXb-158">
          <mxGeometry relative="1" as="geometry">
            <mxPoint x="-30" y="120" as="sourcePoint" />
            <mxPoint x="29.833333333333485" y="99.66666666666674" as="targetPoint" />
            <Array as="points">
              <mxPoint x="10" y="150" />
            </Array>
          </mxGeometry>
        </mxCell>
        <mxCell id="7b926Ie0Sg-8X5z5vAXb-128" value="&lt;div&gt;LLM&lt;/div&gt;Summarize content" style="shape=process;whiteSpace=wrap;html=1;backgroundOutline=1;" vertex="1" parent="7b926Ie0Sg-8X5z5vAXb-38">
          <mxGeometry x="210" y="122.29000000000002" width="90" height="57" as="geometry" />
        </mxCell>
        <mxCell id="7b926Ie0Sg-8X5z5vAXb-155" style="edgeStyle=entityRelationEdgeStyle;rounded=0;orthogonalLoop=1;jettySize=auto;html=1;startArrow=none;endArrow=none;segment=10;curved=1;sourcePerimeterSpacing=0;targetPerimeterSpacing=0;exitX=1;exitY=1;exitDx=0;exitDy=0;entryX=0;entryY=0.5;entryDx=0;entryDy=0;" edge="1" parent="7b926Ie0Sg-8X5z5vAXb-38" source="7b926Ie0Sg-8X5z5vAXb-153" target="7b926Ie0Sg-8X5z5vAXb-128">
          <mxGeometry relative="1" as="geometry" />
        </mxCell>
        <mxCell id="7b926Ie0Sg-8X5z5vAXb-114" value="Docstore" style="shape=table;startSize=20;container=1;collapsible=1;childLayout=tableLayout;fixedRows=1;rowLines=0;fontStyle=1;align=center;resizeLast=1;html=1;" vertex="1" parent="7b926Ie0Sg-8X5z5vAXb-38">
          <mxGeometry x="340" y="200" width="180" height="140" as="geometry" />
        </mxCell>
        <mxCell id="7b926Ie0Sg-8X5z5vAXb-115" value="" style="shape=tableRow;horizontal=0;startSize=0;swimlaneHead=0;swimlaneBody=0;fillColor=none;collapsible=0;dropTarget=0;points=[[0,0.5],[1,0.5]];portConstraint=eastwest;top=0;left=0;right=0;bottom=1;" vertex="1" parent="7b926Ie0Sg-8X5z5vAXb-114">
          <mxGeometry y="20" width="180" height="30" as="geometry" />
        </mxCell>
        <mxCell id="7b926Ie0Sg-8X5z5vAXb-116" value="doc_id" style="shape=partialRectangle;connectable=0;fillColor=none;top=0;left=0;bottom=0;right=0;fontStyle=1;overflow=hidden;whiteSpace=wrap;html=1;" vertex="1" parent="7b926Ie0Sg-8X5z5vAXb-115">
          <mxGeometry width="70" height="30" as="geometry">
            <mxRectangle width="70" height="30" as="alternateBounds" />
          </mxGeometry>
        </mxCell>
        <mxCell id="7b926Ie0Sg-8X5z5vAXb-117" value="Content" style="shape=partialRectangle;connectable=0;fillColor=none;top=0;left=0;bottom=0;right=0;align=left;spacingLeft=6;fontStyle=5;overflow=hidden;whiteSpace=wrap;html=1;" vertex="1" parent="7b926Ie0Sg-8X5z5vAXb-115">
          <mxGeometry x="70" width="110" height="30" as="geometry">
            <mxRectangle width="110" height="30" as="alternateBounds" />
          </mxGeometry>
        </mxCell>
        <mxCell id="7b926Ie0Sg-8X5z5vAXb-118" value="" style="shape=tableRow;horizontal=0;startSize=0;swimlaneHead=0;swimlaneBody=0;fillColor=none;collapsible=0;dropTarget=0;points=[[0,0.5],[1,0.5]];portConstraint=eastwest;top=0;left=0;right=0;bottom=0;" vertex="1" parent="7b926Ie0Sg-8X5z5vAXb-114">
          <mxGeometry y="50" width="180" height="30" as="geometry" />
        </mxCell>
        <mxCell id="7b926Ie0Sg-8X5z5vAXb-119" value="doc1" style="shape=partialRectangle;connectable=0;fillColor=#dae8fc;top=0;left=0;bottom=0;right=0;editable=1;overflow=hidden;whiteSpace=wrap;html=1;strokeColor=#6c8ebf;" vertex="1" parent="7b926Ie0Sg-8X5z5vAXb-118">
          <mxGeometry width="70" height="30" as="geometry">
            <mxRectangle width="70" height="30" as="alternateBounds" />
          </mxGeometry>
        </mxCell>
        <mxCell id="7b926Ie0Sg-8X5z5vAXb-120" value="Content..." style="shape=partialRectangle;connectable=0;fillColor=none;top=0;left=0;bottom=0;right=0;align=left;spacingLeft=6;overflow=hidden;whiteSpace=wrap;html=1;" vertex="1" parent="7b926Ie0Sg-8X5z5vAXb-118">
          <mxGeometry x="70" width="110" height="30" as="geometry">
            <mxRectangle width="110" height="30" as="alternateBounds" />
          </mxGeometry>
        </mxCell>
        <mxCell id="7b926Ie0Sg-8X5z5vAXb-121" value="" style="shape=tableRow;horizontal=0;startSize=0;swimlaneHead=0;swimlaneBody=0;fillColor=none;collapsible=0;dropTarget=0;points=[[0,0.5],[1,0.5]];portConstraint=eastwest;top=0;left=0;right=0;bottom=0;" vertex="1" parent="7b926Ie0Sg-8X5z5vAXb-114">
          <mxGeometry y="80" width="180" height="30" as="geometry" />
        </mxCell>
        <mxCell id="7b926Ie0Sg-8X5z5vAXb-122" value="doc2" style="shape=partialRectangle;connectable=0;fillColor=#d5e8d4;top=0;left=0;bottom=0;right=0;editable=1;overflow=hidden;whiteSpace=wrap;html=1;strokeColor=#82b366;" vertex="1" parent="7b926Ie0Sg-8X5z5vAXb-121">
          <mxGeometry width="70" height="30" as="geometry">
            <mxRectangle width="70" height="30" as="alternateBounds" />
          </mxGeometry>
        </mxCell>
        <mxCell id="7b926Ie0Sg-8X5z5vAXb-123" value="&amp;lt;table&amp;gt;&amp;lt;tr&amp;gt;..." style="shape=partialRectangle;connectable=0;fillColor=none;top=0;left=0;bottom=0;right=0;align=left;spacingLeft=6;overflow=hidden;whiteSpace=wrap;html=1;" vertex="1" parent="7b926Ie0Sg-8X5z5vAXb-121">
          <mxGeometry x="70" width="110" height="30" as="geometry">
            <mxRectangle width="110" height="30" as="alternateBounds" />
          </mxGeometry>
        </mxCell>
        <mxCell id="7b926Ie0Sg-8X5z5vAXb-124" value="" style="shape=tableRow;horizontal=0;startSize=0;swimlaneHead=0;swimlaneBody=0;fillColor=none;collapsible=0;dropTarget=0;points=[[0,0.5],[1,0.5]];portConstraint=eastwest;top=0;left=0;right=0;bottom=0;" vertex="1" parent="7b926Ie0Sg-8X5z5vAXb-114">
          <mxGeometry y="110" width="180" height="30" as="geometry" />
        </mxCell>
        <mxCell id="7b926Ie0Sg-8X5z5vAXb-125" value="doc3" style="shape=partialRectangle;connectable=0;fillColor=#fff2cc;top=0;left=0;bottom=0;right=0;editable=1;overflow=hidden;whiteSpace=wrap;html=1;strokeColor=#d6b656;" vertex="1" parent="7b926Ie0Sg-8X5z5vAXb-124">
          <mxGeometry width="70" height="30" as="geometry">
            <mxRectangle width="70" height="30" as="alternateBounds" />
          </mxGeometry>
        </mxCell>
        <mxCell id="7b926Ie0Sg-8X5z5vAXb-126" value="Content..." style="shape=partialRectangle;connectable=0;fillColor=none;top=0;left=0;bottom=0;right=0;align=left;spacingLeft=6;overflow=hidden;whiteSpace=wrap;html=1;" vertex="1" parent="7b926Ie0Sg-8X5z5vAXb-124">
          <mxGeometry x="70" width="110" height="30" as="geometry">
            <mxRectangle width="110" height="30" as="alternateBounds" />
          </mxGeometry>
        </mxCell>
        <mxCell id="7b926Ie0Sg-8X5z5vAXb-157" style="edgeStyle=entityRelationEdgeStyle;rounded=0;orthogonalLoop=1;jettySize=auto;html=1;startArrow=none;endArrow=none;segment=10;sourcePerimeterSpacing=0;targetPerimeterSpacing=0;exitX=1;exitY=1;exitDx=0;exitDy=0;entryX=0.003;entryY=0.097;entryDx=0;entryDy=0;entryPerimeter=0;" edge="1" parent="7b926Ie0Sg-8X5z5vAXb-38" source="7b926Ie0Sg-8X5z5vAXb-153" target="7b926Ie0Sg-8X5z5vAXb-114">
          <mxGeometry relative="1" as="geometry" />
        </mxCell>
        <mxCell id="7b926Ie0Sg-8X5z5vAXb-147" value="Key/Value store" style="shape=cylinder3;whiteSpace=wrap;html=1;boundedLbl=1;backgroundOutline=1;size=15;fillColor=#d5e8d4;strokeColor=#82b366;" vertex="1" parent="7b926Ie0Sg-8X5z5vAXb-38">
          <mxGeometry x="660" y="190" width="68.52" height="90" as="geometry" />
        </mxCell>
        <mxCell id="7b926Ie0Sg-8X5z5vAXb-150" style="edgeStyle=orthogonalEdgeStyle;rounded=0;orthogonalLoop=1;jettySize=auto;html=1;exitX=1;exitY=0.5;exitDx=0;exitDy=0;entryX=0;entryY=0.5;entryDx=0;entryDy=0;entryPerimeter=0;" edge="1" parent="7b926Ie0Sg-8X5z5vAXb-38" source="7b926Ie0Sg-8X5z5vAXb-115" target="7b926Ie0Sg-8X5z5vAXb-147">
          <mxGeometry relative="1" as="geometry" />
        </mxCell>
        <mxCell id="7b926Ie0Sg-8X5z5vAXb-148" value="Vector database" style="shape=cylinder3;whiteSpace=wrap;html=1;boundedLbl=1;backgroundOutline=1;size=15;fillColor=#d5e8d4;strokeColor=#82b366;" vertex="1" parent="7b926Ie0Sg-8X5z5vAXb-38">
          <mxGeometry x="660" y="70" width="68.52" height="90" as="geometry" />
        </mxCell>
        <mxCell id="7b926Ie0Sg-8X5z5vAXb-43" value="Vectorstore" style="shape=table;startSize=30;container=1;collapsible=1;childLayout=tableLayout;fixedRows=1;rowLines=0;fontStyle=1;align=center;resizeLast=1;html=1;" vertex="1" parent="7b926Ie0Sg-8X5z5vAXb-38">
          <mxGeometry x="340" y="10" width="290" height="150" as="geometry" />
        </mxCell>
        <mxCell id="7b926Ie0Sg-8X5z5vAXb-44" value="" style="shape=tableRow;horizontal=0;startSize=0;swimlaneHead=0;swimlaneBody=0;fillColor=none;collapsible=0;dropTarget=0;points=[[0,0.5],[1,0.5]];portConstraint=eastwest;top=0;left=0;right=0;bottom=1;" vertex="1" parent="7b926Ie0Sg-8X5z5vAXb-43">
          <mxGeometry y="30" width="290" height="30" as="geometry" />
        </mxCell>
        <mxCell id="7b926Ie0Sg-8X5z5vAXb-45" value="doc_id" style="shape=partialRectangle;connectable=0;fillColor=none;top=0;left=0;bottom=0;right=0;fontStyle=1;overflow=hidden;whiteSpace=wrap;html=1;" vertex="1" parent="7b926Ie0Sg-8X5z5vAXb-44">
          <mxGeometry width="70" height="30" as="geometry">
            <mxRectangle width="70" height="30" as="alternateBounds" />
          </mxGeometry>
        </mxCell>
        <mxCell id="7b926Ie0Sg-8X5z5vAXb-46" value="Summary" style="shape=partialRectangle;connectable=0;fillColor=none;top=0;left=0;bottom=0;right=0;align=left;spacingLeft=6;fontStyle=5;overflow=hidden;whiteSpace=wrap;html=1;" vertex="1" parent="7b926Ie0Sg-8X5z5vAXb-44">
          <mxGeometry x="70" width="110" height="30" as="geometry">
            <mxRectangle width="110" height="30" as="alternateBounds" />
          </mxGeometry>
        </mxCell>
        <mxCell id="7b926Ie0Sg-8X5z5vAXb-142" value="Embedding" style="shape=partialRectangle;connectable=0;fillColor=none;top=0;left=0;bottom=0;right=0;align=left;spacingLeft=6;fontStyle=5;overflow=hidden;whiteSpace=wrap;html=1;" vertex="1" parent="7b926Ie0Sg-8X5z5vAXb-44">
          <mxGeometry x="180" width="110" height="30" as="geometry">
            <mxRectangle width="110" height="30" as="alternateBounds" />
          </mxGeometry>
        </mxCell>
        <mxCell id="7b926Ie0Sg-8X5z5vAXb-47" value="" style="shape=tableRow;horizontal=0;startSize=0;swimlaneHead=0;swimlaneBody=0;fillColor=none;collapsible=0;dropTarget=0;points=[[0,0.5],[1,0.5]];portConstraint=eastwest;top=0;left=0;right=0;bottom=0;" vertex="1" parent="7b926Ie0Sg-8X5z5vAXb-43">
          <mxGeometry y="60" width="290" height="30" as="geometry" />
        </mxCell>
        <mxCell id="7b926Ie0Sg-8X5z5vAXb-48" value="doc1" style="shape=partialRectangle;connectable=0;fillColor=#dae8fc;top=0;left=0;bottom=0;right=0;editable=1;overflow=hidden;whiteSpace=wrap;html=1;strokeColor=#6c8ebf;" vertex="1" parent="7b926Ie0Sg-8X5z5vAXb-47">
          <mxGeometry width="70" height="30" as="geometry">
            <mxRectangle width="70" height="30" as="alternateBounds" />
          </mxGeometry>
        </mxCell>
        <mxCell id="7b926Ie0Sg-8X5z5vAXb-49" value="Content summary" style="shape=partialRectangle;connectable=0;fillColor=none;top=0;left=0;bottom=0;right=0;align=left;spacingLeft=6;overflow=hidden;whiteSpace=wrap;html=1;" vertex="1" parent="7b926Ie0Sg-8X5z5vAXb-47">
          <mxGeometry x="70" width="110" height="30" as="geometry">
            <mxRectangle width="110" height="30" as="alternateBounds" />
          </mxGeometry>
        </mxCell>
        <mxCell id="7b926Ie0Sg-8X5z5vAXb-143" value="[0.287, 0.7763, ...]" style="shape=partialRectangle;connectable=0;fillColor=none;top=0;left=0;bottom=0;right=0;align=left;spacingLeft=6;overflow=hidden;whiteSpace=wrap;html=1;" vertex="1" parent="7b926Ie0Sg-8X5z5vAXb-47">
          <mxGeometry x="180" width="110" height="30" as="geometry">
            <mxRectangle width="110" height="30" as="alternateBounds" />
          </mxGeometry>
        </mxCell>
        <mxCell id="7b926Ie0Sg-8X5z5vAXb-50" value="" style="shape=tableRow;horizontal=0;startSize=0;swimlaneHead=0;swimlaneBody=0;fillColor=none;collapsible=0;dropTarget=0;points=[[0,0.5],[1,0.5]];portConstraint=eastwest;top=0;left=0;right=0;bottom=0;" vertex="1" parent="7b926Ie0Sg-8X5z5vAXb-43">
          <mxGeometry y="90" width="290" height="30" as="geometry" />
        </mxCell>
        <mxCell id="7b926Ie0Sg-8X5z5vAXb-51" value="doc2" style="shape=partialRectangle;connectable=0;fillColor=#d5e8d4;top=0;left=0;bottom=0;right=0;editable=1;overflow=hidden;whiteSpace=wrap;html=1;strokeColor=#82b366;" vertex="1" parent="7b926Ie0Sg-8X5z5vAXb-50">
          <mxGeometry width="70" height="30" as="geometry">
            <mxRectangle width="70" height="30" as="alternateBounds" />
          </mxGeometry>
        </mxCell>
        <mxCell id="7b926Ie0Sg-8X5z5vAXb-52" value="Content summary" style="shape=partialRectangle;connectable=0;fillColor=none;top=0;left=0;bottom=0;right=0;align=left;spacingLeft=6;overflow=hidden;whiteSpace=wrap;html=1;" vertex="1" parent="7b926Ie0Sg-8X5z5vAXb-50">
          <mxGeometry x="70" width="110" height="30" as="geometry">
            <mxRectangle width="110" height="30" as="alternateBounds" />
          </mxGeometry>
        </mxCell>
        <mxCell id="7b926Ie0Sg-8X5z5vAXb-144" value="[0.197, 0.432, ...]" style="shape=partialRectangle;connectable=0;fillColor=none;top=0;left=0;bottom=0;right=0;align=left;spacingLeft=6;overflow=hidden;whiteSpace=wrap;html=1;" vertex="1" parent="7b926Ie0Sg-8X5z5vAXb-50">
          <mxGeometry x="180" width="110" height="30" as="geometry">
            <mxRectangle width="110" height="30" as="alternateBounds" />
          </mxGeometry>
        </mxCell>
        <mxCell id="7b926Ie0Sg-8X5z5vAXb-53" value="" style="shape=tableRow;horizontal=0;startSize=0;swimlaneHead=0;swimlaneBody=0;fillColor=none;collapsible=0;dropTarget=0;points=[[0,0.5],[1,0.5]];portConstraint=eastwest;top=0;left=0;right=0;bottom=0;" vertex="1" parent="7b926Ie0Sg-8X5z5vAXb-43">
          <mxGeometry y="120" width="290" height="30" as="geometry" />
        </mxCell>
        <mxCell id="7b926Ie0Sg-8X5z5vAXb-54" value="doc3" style="shape=partialRectangle;connectable=0;fillColor=#fff2cc;top=0;left=0;bottom=0;right=0;editable=1;overflow=hidden;whiteSpace=wrap;html=1;strokeColor=#d6b656;" vertex="1" parent="7b926Ie0Sg-8X5z5vAXb-53">
          <mxGeometry width="70" height="30" as="geometry">
            <mxRectangle width="70" height="30" as="alternateBounds" />
          </mxGeometry>
        </mxCell>
        <mxCell id="7b926Ie0Sg-8X5z5vAXb-55" value="Content summary" style="shape=partialRectangle;connectable=0;fillColor=none;top=0;left=0;bottom=0;right=0;align=left;spacingLeft=6;overflow=hidden;whiteSpace=wrap;html=1;" vertex="1" parent="7b926Ie0Sg-8X5z5vAXb-53">
          <mxGeometry x="70" width="110" height="30" as="geometry">
            <mxRectangle width="110" height="30" as="alternateBounds" />
          </mxGeometry>
        </mxCell>
        <mxCell id="7b926Ie0Sg-8X5z5vAXb-145" value="[0.366, 0.17, ..]" style="shape=partialRectangle;connectable=0;fillColor=none;top=0;left=0;bottom=0;right=0;align=left;spacingLeft=6;overflow=hidden;whiteSpace=wrap;html=1;" vertex="1" parent="7b926Ie0Sg-8X5z5vAXb-53">
          <mxGeometry x="180" width="110" height="30" as="geometry">
            <mxRectangle width="110" height="30" as="alternateBounds" />
          </mxGeometry>
        </mxCell>
        <mxCell id="7b926Ie0Sg-8X5z5vAXb-149" style="edgeStyle=orthogonalEdgeStyle;rounded=0;orthogonalLoop=1;jettySize=auto;html=1;exitX=1;exitY=0.5;exitDx=0;exitDy=0;entryX=0;entryY=0.5;entryDx=0;entryDy=0;entryPerimeter=0;curved=1;" edge="1" parent="7b926Ie0Sg-8X5z5vAXb-38" source="7b926Ie0Sg-8X5z5vAXb-44" target="7b926Ie0Sg-8X5z5vAXb-148">
          <mxGeometry relative="1" as="geometry" />
        </mxCell>
        <mxCell id="7b926Ie0Sg-8X5z5vAXb-129" style="edgeStyle=orthogonalEdgeStyle;rounded=0;orthogonalLoop=1;jettySize=auto;html=1;exitX=1;exitY=0.5;exitDx=0;exitDy=0;entryX=0;entryY=0.25;entryDx=0;entryDy=0;" edge="1" parent="7b926Ie0Sg-8X5z5vAXb-38" source="7b926Ie0Sg-8X5z5vAXb-128" target="7b926Ie0Sg-8X5z5vAXb-43">
          <mxGeometry relative="1" as="geometry" />
        </mxCell>
        <mxCell id="7b926Ie0Sg-8X5z5vAXb-159" value="" style="endArrow=none;dashed=1;html=1;dashPattern=1 3;strokeWidth=2;rounded=0;entryX=0.007;entryY=1.061;entryDx=0;entryDy=0;entryPerimeter=0;exitX=0;exitY=0;exitDx=0;exitDy=0;" edge="1" parent="1" source="7b926Ie0Sg-8X5z5vAXb-38" target="7b926Ie0Sg-8X5z5vAXb-5">
          <mxGeometry width="50" height="50" relative="1" as="geometry">
            <mxPoint x="-203" y="425" as="sourcePoint" />
            <mxPoint x="370" y="307" as="targetPoint" />
          </mxGeometry>
        </mxCell>
        <mxCell id="7b926Ie0Sg-8X5z5vAXb-160" value="" style="endArrow=none;dashed=1;html=1;dashPattern=1 3;strokeWidth=2;rounded=0;entryX=0.888;entryY=0.954;entryDx=0;entryDy=0;entryPerimeter=0;exitX=1;exitY=0;exitDx=0;exitDy=0;edgeStyle=orthogonalEdgeStyle;curved=1;" edge="1" parent="1" source="7b926Ie0Sg-8X5z5vAXb-38" target="7b926Ie0Sg-8X5z5vAXb-5">
          <mxGeometry width="50" height="50" relative="1" as="geometry">
            <mxPoint x="950" y="350" as="sourcePoint" />
            <mxPoint x="311" y="248" as="targetPoint" />
          </mxGeometry>
        </mxCell>
        <mxCell id="7b926Ie0Sg-8X5z5vAXb-163" style="edgeStyle=orthogonalEdgeStyle;rounded=0;orthogonalLoop=1;jettySize=auto;html=1;exitX=1;exitY=0.5;exitDx=0;exitDy=0;" edge="1" parent="1" source="7b926Ie0Sg-8X5z5vAXb-161" target="7b926Ie0Sg-8X5z5vAXb-8">
          <mxGeometry relative="1" as="geometry" />
        </mxCell>
        <mxCell id="7b926Ie0Sg-8X5z5vAXb-161" value="MultiVector&lt;div&gt;Retriever&lt;/div&gt;" style="shape=step;perimeter=stepPerimeter;whiteSpace=wrap;html=1;fixedSize=1;" vertex="1" parent="1">
          <mxGeometry x="520" y="160" width="120" height="80" as="geometry" />
        </mxCell>
        <mxCell id="7b926Ie0Sg-8X5z5vAXb-164" value="" style="endArrow=none;dashed=1;html=1;dashPattern=1 3;strokeWidth=2;rounded=0;entryX=0;entryY=1;entryDx=0;entryDy=0;exitX=0.005;exitY=-0.021;exitDx=0;exitDy=0;exitPerimeter=0;edgeStyle=orthogonalEdgeStyle;curved=1;" edge="1" parent="1" source="7b926Ie0Sg-8X5z5vAXb-8" target="7b926Ie0Sg-8X5z5vAXb-166">
          <mxGeometry width="50" height="50" relative="1" as="geometry">
            <mxPoint x="670" y="125" as="sourcePoint" />
            <mxPoint x="671" y="10" as="targetPoint" />
            <Array as="points">
              <mxPoint x="681" y="130" />
              <mxPoint x="220" y="130" />
            </Array>
          </mxGeometry>
        </mxCell>
        <mxCell id="7b926Ie0Sg-8X5z5vAXb-165" value="" style="endArrow=none;dashed=1;html=1;dashPattern=1 3;strokeWidth=2;rounded=0;entryX=1;entryY=1;entryDx=0;entryDy=0;exitX=0.828;exitY=0.024;exitDx=0;exitDy=0;exitPerimeter=0;" edge="1" parent="1" source="7b926Ie0Sg-8X5z5vAXb-8" target="7b926Ie0Sg-8X5z5vAXb-166">
          <mxGeometry width="50" height="50" relative="1" as="geometry">
            <mxPoint x="790.89" y="95" as="sourcePoint" />
            <mxPoint x="791.89" y="-20" as="targetPoint" />
          </mxGeometry>
        </mxCell>
        <mxCell id="7b926Ie0Sg-8X5z5vAXb-166" value="Retrieval Chain" style="rounded=0;whiteSpace=wrap;html=1;fillColor=none;dashed=1;dashPattern=8 8;verticalAlign=bottom;align=center;labelPosition=center;verticalLabelPosition=top;fontStyle=5;fontSize=20;container=1;" vertex="1" parent="1">
          <mxGeometry x="220" y="-270" width="570" height="320" as="geometry">
            <mxRectangle x="220" y="-270" width="180" height="40" as="alternateBounds" />
          </mxGeometry>
        </mxCell>
        <mxCell id="7b926Ie0Sg-8X5z5vAXb-181" value="Prompt parameters&lt;div&gt;(context, query)&lt;/div&gt;" style="rounded=0;whiteSpace=wrap;html=1;fillColor=#ffe6cc;strokeColor=#d79b00;" vertex="1" parent="7b926Ie0Sg-8X5z5vAXb-166">
          <mxGeometry x="10" y="10" width="120" height="60" as="geometry" />
        </mxCell>
        <mxCell id="7b926Ie0Sg-8X5z5vAXb-194" value="Retrieval context generator" style="rounded=0;whiteSpace=wrap;html=1;fillColor=#ffe6cc;strokeColor=#d79b00;" vertex="1" parent="7b926Ie0Sg-8X5z5vAXb-166">
          <mxGeometry x="10" y="150" width="120" height="60" as="geometry" />
        </mxCell>
        <mxCell id="7b926Ie0Sg-8X5z5vAXb-195" value="Query" style="edgeStyle=orthogonalEdgeStyle;rounded=0;orthogonalLoop=1;jettySize=auto;html=1;exitX=0.5;exitY=1;exitDx=0;exitDy=0;entryX=0.5;entryY=0;entryDx=0;entryDy=0;" edge="1" parent="7b926Ie0Sg-8X5z5vAXb-166" source="7b926Ie0Sg-8X5z5vAXb-181" target="7b926Ie0Sg-8X5z5vAXb-194">
          <mxGeometry relative="1" as="geometry" />
        </mxCell>
        <mxCell id="7b926Ie0Sg-8X5z5vAXb-192" value="Model config&lt;div&gt;{LLaVA, http://ollama:11434/}&lt;/div&gt;" style="rounded=0;whiteSpace=wrap;html=1;fillColor=#ffe6cc;strokeColor=#d79b00;" vertex="1" parent="7b926Ie0Sg-8X5z5vAXb-166">
          <mxGeometry x="10" y="250" width="180" height="60" as="geometry" />
        </mxCell>
        <mxCell id="7b926Ie0Sg-8X5z5vAXb-179" value="Stored prompt template" style="rounded=0;whiteSpace=wrap;html=1;" vertex="1" parent="7b926Ie0Sg-8X5z5vAXb-166">
          <mxGeometry x="210" y="70" width="120" height="60" as="geometry" />
        </mxCell>
        <mxCell id="7b926Ie0Sg-8X5z5vAXb-196" value="Context" style="edgeStyle=orthogonalEdgeStyle;rounded=0;orthogonalLoop=1;jettySize=auto;html=1;exitX=1;exitY=0.5;exitDx=0;exitDy=0;entryX=0;entryY=0.75;entryDx=0;entryDy=0;" edge="1" parent="7b926Ie0Sg-8X5z5vAXb-166" source="7b926Ie0Sg-8X5z5vAXb-194" target="7b926Ie0Sg-8X5z5vAXb-179">
          <mxGeometry relative="1" as="geometry" />
        </mxCell>
        <mxCell id="7b926Ie0Sg-8X5z5vAXb-182" value="Query" style="edgeStyle=orthogonalEdgeStyle;rounded=0;orthogonalLoop=1;jettySize=auto;html=1;exitX=1;exitY=0.5;exitDx=0;exitDy=0;entryX=0;entryY=0.25;entryDx=0;entryDy=0;" edge="1" parent="7b926Ie0Sg-8X5z5vAXb-166" source="7b926Ie0Sg-8X5z5vAXb-181" target="7b926Ie0Sg-8X5z5vAXb-179">
          <mxGeometry relative="1" as="geometry" />
        </mxCell>
        <mxCell id="7b926Ie0Sg-8X5z5vAXb-177" value="&lt;div&gt;LLM Interface&lt;/div&gt;&lt;b&gt;Ollama Client API&lt;/b&gt;" style="rounded=0;whiteSpace=wrap;html=1;" vertex="1" parent="7b926Ie0Sg-8X5z5vAXb-166">
          <mxGeometry x="430" y="80" width="120" height="80" as="geometry" />
        </mxCell>
        <mxCell id="7b926Ie0Sg-8X5z5vAXb-188" style="edgeStyle=orthogonalEdgeStyle;rounded=0;orthogonalLoop=1;jettySize=auto;html=1;exitX=1;exitY=0.5;exitDx=0;exitDy=0;entryX=0;entryY=0.25;entryDx=0;entryDy=0;" edge="1" parent="7b926Ie0Sg-8X5z5vAXb-166" source="7b926Ie0Sg-8X5z5vAXb-179" target="7b926Ie0Sg-8X5z5vAXb-177">
          <mxGeometry relative="1" as="geometry" />
        </mxCell>
        <mxCell id="7b926Ie0Sg-8X5z5vAXb-193" style="edgeStyle=orthogonalEdgeStyle;rounded=0;orthogonalLoop=1;jettySize=auto;html=1;exitX=1;exitY=0.5;exitDx=0;exitDy=0;entryX=0;entryY=0.75;entryDx=0;entryDy=0;curved=1;" edge="1" parent="7b926Ie0Sg-8X5z5vAXb-166" source="7b926Ie0Sg-8X5z5vAXb-192" target="7b926Ie0Sg-8X5z5vAXb-177">
          <mxGeometry relative="1" as="geometry" />
        </mxCell>
        <mxCell id="7b926Ie0Sg-8X5z5vAXb-189" value="String output parser" style="rounded=0;whiteSpace=wrap;html=1;fillColor=#d5e8d4;strokeColor=#82b366;" vertex="1" parent="7b926Ie0Sg-8X5z5vAXb-166">
          <mxGeometry x="430" y="210" width="120" height="60" as="geometry" />
        </mxCell>
        <mxCell id="7b926Ie0Sg-8X5z5vAXb-190" style="edgeStyle=orthogonalEdgeStyle;rounded=0;orthogonalLoop=1;jettySize=auto;html=1;exitX=0.5;exitY=1;exitDx=0;exitDy=0;entryX=0.5;entryY=0;entryDx=0;entryDy=0;" edge="1" parent="7b926Ie0Sg-8X5z5vAXb-166" source="7b926Ie0Sg-8X5z5vAXb-177" target="7b926Ie0Sg-8X5z5vAXb-189">
          <mxGeometry relative="1" as="geometry" />
        </mxCell>
        <mxCell id="7b926Ie0Sg-8X5z5vAXb-183" value="" style="group" vertex="1" connectable="0" parent="1">
          <mxGeometry x="960" y="-260" width="160" height="190" as="geometry" />
        </mxCell>
        <mxCell id="7b926Ie0Sg-8X5z5vAXb-168" value="" style="rounded=0;whiteSpace=wrap;html=1;fillColor=#dae8fc;strokeColor=#6c8ebf;fillStyle=zigzag-line;" vertex="1" parent="7b926Ie0Sg-8X5z5vAXb-183">
          <mxGeometry width="160" height="190" as="geometry" />
        </mxCell>
        <mxCell id="7b926Ie0Sg-8X5z5vAXb-175" style="edgeStyle=orthogonalEdgeStyle;rounded=0;orthogonalLoop=1;jettySize=auto;html=1;exitX=0.31;exitY=0.8;exitDx=0;exitDy=0;exitPerimeter=0;startArrow=classic;startFill=1;shape=link;" edge="1" parent="7b926Ie0Sg-8X5z5vAXb-183" source="7b926Ie0Sg-8X5z5vAXb-167" target="7b926Ie0Sg-8X5z5vAXb-170">
          <mxGeometry relative="1" as="geometry" />
        </mxCell>
        <mxCell id="7b926Ie0Sg-8X5z5vAXb-176" style="edgeStyle=orthogonalEdgeStyle;rounded=0;orthogonalLoop=1;jettySize=auto;html=1;exitX=0.8;exitY=0.8;exitDx=0;exitDy=0;exitPerimeter=0;entryX=0.5;entryY=0;entryDx=0;entryDy=0;shape=link;" edge="1" parent="7b926Ie0Sg-8X5z5vAXb-183" source="7b926Ie0Sg-8X5z5vAXb-167" target="7b926Ie0Sg-8X5z5vAXb-174">
          <mxGeometry relative="1" as="geometry" />
        </mxCell>
        <mxCell id="7b926Ie0Sg-8X5z5vAXb-167" value="Ollama&lt;div&gt;Server&lt;/div&gt;" style="ellipse;shape=cloud;whiteSpace=wrap;html=1;" vertex="1" parent="7b926Ie0Sg-8X5z5vAXb-183">
          <mxGeometry x="20" width="120" height="80" as="geometry" />
        </mxCell>
        <mxCell id="7b926Ie0Sg-8X5z5vAXb-170" value="Model Store" style="sketch=0;pointerEvents=1;shadow=0;dashed=0;html=1;strokeColor=none;fillColor=#505050;labelPosition=center;verticalLabelPosition=bottom;verticalAlign=top;outlineConnect=0;align=center;shape=mxgraph.office.devices.hard_disk;" vertex="1" parent="7b926Ie0Sg-8X5z5vAXb-183">
          <mxGeometry x="20" y="110" width="40" height="54" as="geometry" />
        </mxCell>
        <mxCell id="7b926Ie0Sg-8X5z5vAXb-174" value="Cloud GPUs" style="sketch=0;html=1;verticalAlign=top;labelPosition=center;verticalLabelPosition=bottom;align=center;spacingTop=-6;fontSize=11;fontStyle=1;fontColor=#999999;shape=image;aspect=fixed;imageAspect=0;image=data:image/svg+xml,PHN2ZyB4bWxucz0iaHR0cDovL3d3dy53My5vcmcvMjAwMC9zdmciIHhtbG5zOnY9Imh0dHBzOi8vdmVjdGEuaW8vbmFubyIgd2lkdGg9IjIwIiBoZWlnaHQ9IjIwIiB2aWV3Qm94PSIwIDAgMjAgMjAiPiYjeGE7CTxzdHlsZSB0eXBlPSJ0ZXh0L2NzcyI+JiN4YTsJLnN0MHtmaWxsOiM0Mjg1ZjQ7fSYjeGE7CTwvc3R5bGU+JiN4YTsJPHBhdGggY2xhc3M9InN0MCIgZD0iTTEzLjMzIDB2Mi4zOGgtMi4xNlYwSDguODN2Mi4zOEg2LjY3VjBINC4yOXYyLjM4YTIgMiAwIDAgMC0xLjkxIDEuOTFIMHYyLjM4aDIuMzh2Mi4xNEgwdjIuMzhoMi4zOHYyLjE0SDB2Mi4zOGgyLjM4YTIgMiAwIDAgMCAxLjkxIDEuOTFWMjBoMi4zOHYtMi4zOGgyLjE2VjIwaDIuMzR2LTIuMzhoMi4xNlYyMGgyLjM4di0yLjM4YTIgMiAwIDAgMCAxLjkxLTEuOTFIMjB2LTIuMzhoLTIuMzh2LTIuMTRIMjBWOC44MWgtMi4zOFY2LjY3SDIwVjQuMjloLTIuMzhhMiAyIDAgMCAwLTEuOTEtMS45MVYwem0xLjUzIDE1LjI0SDUuMTRhLjM4LjM4IDAgMCAxLS4zOC0uMzhWNS4xNGEuMzguMzggMCAwIDEgLjM4LS4zOGg5LjcyYS4zOC4zOCAwIDAgMSAuMzguMzh2OS43MmEuMzguMzggMCAwIDEtLjM4LjM4em0tMi4wNy02LjEybC0zLjUgNC44NnYtMy42M0g3LjIybDMuNjEtNC44MXYzLjU4eiIvPiYjeGE7PC9zdmc+;" vertex="1" parent="7b926Ie0Sg-8X5z5vAXb-183">
          <mxGeometry x="98" y="110" width="42" height="42" as="geometry" />
        </mxCell>
        <mxCell id="7b926Ie0Sg-8X5z5vAXb-178" style="edgeStyle=isometricEdgeStyle;rounded=0;orthogonalLoop=1;jettySize=auto;html=1;exitX=1;exitY=0.25;exitDx=0;exitDy=0;entryX=0.07;entryY=0.4;entryDx=0;entryDy=0;shape=flexArrow;width=5.833333333333334;endSize=4.191666666666667;endWidth=12.63888888888889;startArrow=none;startWidth=12.63888888888889;startSize=5.883333333333333;entryPerimeter=0;startFill=0;fillColor=#63FFEA;fillStyle=hatch;" edge="1" parent="1" source="7b926Ie0Sg-8X5z5vAXb-177" target="7b926Ie0Sg-8X5z5vAXb-167">
          <mxGeometry relative="1" as="geometry" />
        </mxCell>
        <mxCell id="7b926Ie0Sg-8X5z5vAXb-185" style="edgeStyle=isometricEdgeStyle;rounded=0;orthogonalLoop=1;jettySize=auto;html=1;exitX=1;exitY=0.75;exitDx=0;exitDy=0;entryX=0.13;entryY=0.77;entryDx=0;entryDy=0;shape=flexArrow;width=5.833333333333334;endSize=4.191666666666667;endWidth=12.63888888888889;startArrow=block;startWidth=12.63888888888889;startSize=5.883333333333333;entryPerimeter=0;endArrow=none;endFill=0;fillColor=#63FFEA;fillStyle=hatch;" edge="1" parent="1" source="7b926Ie0Sg-8X5z5vAXb-177" target="7b926Ie0Sg-8X5z5vAXb-167">
          <mxGeometry relative="1" as="geometry">
            <mxPoint x="780" y="-123" as="sourcePoint" />
            <mxPoint x="978" y="-268" as="targetPoint" />
          </mxGeometry>
        </mxCell>
        <mxCell id="7b926Ie0Sg-8X5z5vAXb-203" value="Batchable" style="text;html=1;align=center;verticalAlign=middle;whiteSpace=wrap;rounded=0;fontStyle=1" vertex="1" parent="1">
          <mxGeometry x="860" y="130" width="70" height="30" as="geometry" />
        </mxCell>
        <mxCell id="7b926Ie0Sg-8X5z5vAXb-18" value="Document Ingest" style="rounded=0;whiteSpace=wrap;html=1;fillColor=none;dashed=1;dashPattern=8 8;verticalAlign=bottom;align=center;labelPosition=center;verticalLabelPosition=top;fontSize=20;fontStyle=5;container=1;" vertex="1" parent="1">
          <mxGeometry x="-569.7142857142857" y="390.7142857142857" width="816" height="260" as="geometry">
            <mxRectangle x="-569.7142857142857" y="390.7142857142857" width="190" height="40" as="alternateBounds" />
          </mxGeometry>
        </mxCell>
        <mxCell id="7b926Ie0Sg-8X5z5vAXb-198" value="Files" style="swimlane;fontStyle=0;childLayout=stackLayout;horizontal=1;startSize=30;horizontalStack=0;resizeParent=1;resizeParentMax=0;resizeLast=0;collapsible=1;marginBottom=0;whiteSpace=wrap;html=1;fillColor=#ffe6cc;strokeColor=#d79b00;" vertex="1" parent="7b926Ie0Sg-8X5z5vAXb-18">
          <mxGeometry x="38.857142857142854" y="88.21428571428572" width="136" height="85.71428571428572" as="geometry" />
        </mxCell>
        <mxCell id="7b926Ie0Sg-8X5z5vAXb-199" value="File 1.pdf" style="text;strokeColor=none;fillColor=none;align=left;verticalAlign=middle;spacingLeft=4;spacingRight=4;overflow=hidden;points=[[0,0.5],[1,0.5]];portConstraint=eastwest;rotatable=0;whiteSpace=wrap;html=1;" vertex="1" parent="7b926Ie0Sg-8X5z5vAXb-198">
          <mxGeometry y="30" width="136" height="27.857142857142858" as="geometry" />
        </mxCell>
        <mxCell id="7b926Ie0Sg-8X5z5vAXb-200" value="File 2.pdf" style="text;strokeColor=none;fillColor=none;align=left;verticalAlign=middle;spacingLeft=4;spacingRight=4;overflow=hidden;points=[[0,0.5],[1,0.5]];portConstraint=eastwest;rotatable=0;whiteSpace=wrap;html=1;" vertex="1" parent="7b926Ie0Sg-8X5z5vAXb-198">
          <mxGeometry y="57.85714285714286" width="136" height="27.857142857142858" as="geometry" />
        </mxCell>
        <mxCell id="7b926Ie0Sg-8X5z5vAXb-34" value="PDF Structure analysis" style="shape=process;whiteSpace=wrap;html=1;backgroundOutline=1;" vertex="1" parent="7b926Ie0Sg-8X5z5vAXb-18">
          <mxGeometry x="189.70999999999995" y="104.28285714285717" width="145.71428571428572" height="55.714285714285715" as="geometry" />
        </mxCell>
        <mxCell id="7b926Ie0Sg-8X5z5vAXb-202" style="edgeStyle=orthogonalEdgeStyle;rounded=0;orthogonalLoop=1;jettySize=auto;html=1;exitX=1;exitY=0.5;exitDx=0;exitDy=0;entryX=0;entryY=0.5;entryDx=0;entryDy=0;" edge="1" parent="7b926Ie0Sg-8X5z5vAXb-18" source="7b926Ie0Sg-8X5z5vAXb-199" target="7b926Ie0Sg-8X5z5vAXb-34">
          <mxGeometry relative="1" as="geometry" />
        </mxCell>
        <mxCell id="7b926Ie0Sg-8X5z5vAXb-32" value="Chunking:&lt;br&gt;1. by title&lt;div&gt;2. Char count&lt;/div&gt;" style="shape=process;whiteSpace=wrap;html=1;backgroundOutline=1;" vertex="1" parent="7b926Ie0Sg-8X5z5vAXb-18">
          <mxGeometry x="388.5714285714285" y="74.28571428571428" width="145.71428571428572" height="55.714285714285715" as="geometry" />
        </mxCell>
        <mxCell id="7b926Ie0Sg-8X5z5vAXb-35" style="edgeStyle=orthogonalEdgeStyle;rounded=0;orthogonalLoop=1;jettySize=auto;html=1;exitX=1;exitY=0.25;exitDx=0;exitDy=0;" edge="1" parent="7b926Ie0Sg-8X5z5vAXb-18" source="7b926Ie0Sg-8X5z5vAXb-34" target="7b926Ie0Sg-8X5z5vAXb-32">
          <mxGeometry relative="1" as="geometry" />
        </mxCell>
        <mxCell id="7b926Ie0Sg-8X5z5vAXb-28" value="1. Detect tables&lt;div&gt;2. Convert to HTML&lt;/div&gt;" style="shape=process;whiteSpace=wrap;html=1;backgroundOutline=1;" vertex="1" parent="7b926Ie0Sg-8X5z5vAXb-18">
          <mxGeometry x="388.5714285714285" y="153.21428571428572" width="145.71428571428572" height="55.714285714285715" as="geometry" />
        </mxCell>
        <mxCell id="7b926Ie0Sg-8X5z5vAXb-36" style="edgeStyle=orthogonalEdgeStyle;rounded=0;orthogonalLoop=1;jettySize=auto;html=1;exitX=1;exitY=0.75;exitDx=0;exitDy=0;entryX=0;entryY=0.5;entryDx=0;entryDy=0;" edge="1" parent="7b926Ie0Sg-8X5z5vAXb-18" source="7b926Ie0Sg-8X5z5vAXb-34" target="7b926Ie0Sg-8X5z5vAXb-28">
          <mxGeometry relative="1" as="geometry" />
        </mxCell>
        <mxCell id="7b926Ie0Sg-8X5z5vAXb-24" value="Text" style="triangle;whiteSpace=wrap;html=1;" vertex="1" parent="7b926Ie0Sg-8X5z5vAXb-18">
          <mxGeometry x="573.1428571428571" y="69.64285714285717" width="58.285714285714285" height="65" as="geometry" />
        </mxCell>
        <mxCell id="7b926Ie0Sg-8X5z5vAXb-33" style="edgeStyle=orthogonalEdgeStyle;rounded=0;orthogonalLoop=1;jettySize=auto;html=1;exitX=1;exitY=0.5;exitDx=0;exitDy=0;entryX=0;entryY=0.5;entryDx=0;entryDy=0;" edge="1" parent="7b926Ie0Sg-8X5z5vAXb-18" source="7b926Ie0Sg-8X5z5vAXb-32" target="7b926Ie0Sg-8X5z5vAXb-24">
          <mxGeometry relative="1" as="geometry" />
        </mxCell>
        <mxCell id="7b926Ie0Sg-8X5z5vAXb-25" value="Tables" style="triangle;whiteSpace=wrap;html=1;" vertex="1" parent="7b926Ie0Sg-8X5z5vAXb-18">
          <mxGeometry x="573.1428571428571" y="148.5714285714285" width="58.285714285714285" height="65" as="geometry" />
        </mxCell>
        <mxCell id="7b926Ie0Sg-8X5z5vAXb-31" style="edgeStyle=orthogonalEdgeStyle;rounded=0;orthogonalLoop=1;jettySize=auto;html=1;exitX=1;exitY=0.5;exitDx=0;exitDy=0;entryX=0;entryY=0.5;entryDx=0;entryDy=0;" edge="1" parent="7b926Ie0Sg-8X5z5vAXb-18" source="7b926Ie0Sg-8X5z5vAXb-28" target="7b926Ie0Sg-8X5z5vAXb-25">
          <mxGeometry relative="1" as="geometry" />
        </mxCell>
        <mxCell id="7b926Ie0Sg-8X5z5vAXb-19" value="Document chunks" style="swimlane;fontStyle=0;childLayout=stackLayout;horizontal=1;startSize=30;horizontalStack=0;resizeParent=1;resizeParentMax=0;resizeLast=0;collapsible=1;marginBottom=0;whiteSpace=wrap;html=1;fillColor=#d5e8d4;strokeColor=#82b366;" vertex="1" parent="7b926Ie0Sg-8X5z5vAXb-18">
          <mxGeometry x="650.8571428571428" y="83.57142857142856" width="136" height="113.57142857142858" as="geometry" />
        </mxCell>
        <mxCell id="7b926Ie0Sg-8X5z5vAXb-20" value="Document 1" style="text;strokeColor=none;fillColor=none;align=left;verticalAlign=middle;spacingLeft=4;spacingRight=4;overflow=hidden;points=[[0,0.5],[1,0.5]];portConstraint=eastwest;rotatable=0;whiteSpace=wrap;html=1;" vertex="1" parent="7b926Ie0Sg-8X5z5vAXb-19">
          <mxGeometry y="30" width="136" height="27.857142857142858" as="geometry" />
        </mxCell>
        <mxCell id="7b926Ie0Sg-8X5z5vAXb-21" value="Document 2" style="text;strokeColor=none;fillColor=none;align=left;verticalAlign=middle;spacingLeft=4;spacingRight=4;overflow=hidden;points=[[0,0.5],[1,0.5]];portConstraint=eastwest;rotatable=0;whiteSpace=wrap;html=1;" vertex="1" parent="7b926Ie0Sg-8X5z5vAXb-19">
          <mxGeometry y="57.85714285714286" width="136" height="27.857142857142858" as="geometry" />
        </mxCell>
        <mxCell id="7b926Ie0Sg-8X5z5vAXb-22" value="..." style="text;strokeColor=none;fillColor=none;align=left;verticalAlign=middle;spacingLeft=4;spacingRight=4;overflow=hidden;points=[[0,0.5],[1,0.5]];portConstraint=eastwest;rotatable=0;whiteSpace=wrap;html=1;" vertex="1" parent="7b926Ie0Sg-8X5z5vAXb-19">
          <mxGeometry y="85.71428571428572" width="136" height="27.857142857142858" as="geometry" />
        </mxCell>
        <mxCell id="7b926Ie0Sg-8X5z5vAXb-27" style="edgeStyle=orthogonalEdgeStyle;rounded=0;orthogonalLoop=1;jettySize=auto;html=1;exitX=1;exitY=0.5;exitDx=0;exitDy=0;entryX=0;entryY=0.5;entryDx=0;entryDy=0;" edge="1" parent="7b926Ie0Sg-8X5z5vAXb-18" source="7b926Ie0Sg-8X5z5vAXb-25" target="7b926Ie0Sg-8X5z5vAXb-22">
          <mxGeometry relative="1" as="geometry" />
        </mxCell>
        <mxCell id="7b926Ie0Sg-8X5z5vAXb-37" style="edgeStyle=orthogonalEdgeStyle;rounded=0;orthogonalLoop=1;jettySize=auto;html=1;exitX=1;exitY=0.5;exitDx=0;exitDy=0;entryX=0.002;entryY=0.167;entryDx=0;entryDy=0;entryPerimeter=0;" edge="1" parent="7b926Ie0Sg-8X5z5vAXb-18" source="7b926Ie0Sg-8X5z5vAXb-24" target="7b926Ie0Sg-8X5z5vAXb-19">
          <mxGeometry relative="1" as="geometry" />
        </mxCell>
      </root>
    </mxGraphModel>
  </diagram>
  <diagram id="SZzH9ZkZXGLVpfCZruDW" name="Page-2">
    <mxGraphModel dx="1134" dy="637" grid="1" gridSize="10" guides="1" tooltips="1" connect="1" arrows="1" fold="1" page="1" pageScale="1" pageWidth="850" pageHeight="1100" math="0" shadow="0">
      <root>
        <mxCell id="0" />
        <mxCell id="1" parent="0" />
      </root>
    </mxGraphModel>
  </diagram>
</mxfile>
